<svg width="64" height="52" viewBox="0 0 64 52" fill="none" xmlns="http://www.w3.org/2000/svg">
<path d="M59.2686 34.1621H63.1992V43.5957H59.2686V52H45.46V43.5957H29.0537V34.1621L40.3223 0H59.2686V34.1621ZM39.376 34.1621H45.46V10.6123L39.376 34.1621Z" fill="currentColor"/>
<path d="M26.1982 0C27.0321 0.456195 27.7219 0.985014 28.2666 1.58887C29.3376 2.75098 30.0553 4.16374 30.4199 5.82715C30.8073 7.46777 31.001 10.0199 31.001 13.4834V18.3027C31.001 21.8346 30.6364 24.4095 29.9072 26.0273C29.1781 27.6452 27.8337 28.887 25.874 29.7529C23.9372 30.6188 21.3965 31.0518 18.252 31.0518H14.3896V52H0V0H26.1982ZM14.3896 21.5498C14.7998 21.5726 15.153 21.584 15.4492 21.584C16.7708 21.584 17.6823 21.265 18.1836 20.627C18.7077 19.9661 18.9697 18.6104 18.9697 16.5596V12.0137C18.9697 10.1224 18.6735 8.89193 18.0811 8.32227C17.4886 7.7526 16.2581 7.46777 14.3896 7.46777V21.5498Z" fill="currentColor"/>
</svg>
