<svg width="171" height="52" viewBox="0 0 171 52" fill="none" xmlns="http://www.w3.org/2000/svg">
<path d="M166.269 34.1621H170.199V43.5957H166.269V52H152.46V43.5957H136.054V34.1621L147.322 0H166.269V34.1621ZM146.376 34.1621H152.46V10.6123L146.376 34.1621Z" fill="currentColor"/>
<path d="M128.2 0C129.32 0.566176 130.246 1.26622 130.977 2.10156C132.253 3.55987 133.05 5.18916 133.369 6.98926C133.688 8.7666 133.848 12.2757 133.848 17.5166V36.8965C133.848 41.8639 133.608 45.1908 133.13 46.877C132.674 48.5403 131.865 49.8506 130.703 50.8076C130.124 51.273 129.477 51.6703 128.763 52H100.523V0H128.2ZM114.913 43.8691C116.986 43.8691 118.263 43.4589 118.741 42.6387C119.22 41.7954 119.458 39.528 119.458 35.8369V14.3379C119.458 11.8314 119.378 10.2249 119.219 9.51855C119.059 8.81238 118.695 8.29948 118.126 7.98047C117.556 7.63871 116.485 7.46781 114.913 7.46777V43.8691Z" fill="currentColor"/>
<path d="M98.4131 52H85.4033L78.3154 28.1807V52H66.2842V0H78.9629L86.3818 22.917V0H98.4131V52Z" fill="currentColor"/>
<path d="M64.3232 52H49.6943L49.0732 43.3906H43.9121L43.1729 52H28.332L35.2051 0H56.583L64.3232 52ZM46.4756 10.373C45.0173 20.9459 44.1058 28.682 43.7412 33.5811H48.6631C47.9339 27.3148 47.2048 19.5788 46.4756 10.373Z" fill="currentColor"/>
<path d="M26.1982 0C27.0321 0.456195 27.7219 0.985014 28.2666 1.58887C29.3376 2.75098 30.0553 4.16374 30.4199 5.82715C30.8073 7.46777 31.001 10.0199 31.001 13.4834V18.3027C31.001 21.8346 30.6364 24.4095 29.9072 26.0273C29.1781 27.6452 27.8337 28.887 25.874 29.7529C23.9372 30.6188 21.3965 31.0518 18.252 31.0518H14.3896V52H0V0H26.1982ZM14.3896 21.5498C14.7998 21.5726 15.153 21.584 15.4492 21.584C16.7708 21.584 17.6823 21.265 18.1836 20.627C18.7077 19.9661 18.9697 18.6104 18.9697 16.5596V12.0137C18.9697 10.1224 18.6735 8.89193 18.0811 8.32227C17.4886 7.7526 16.2581 7.46777 14.3896 7.46777V21.5498Z" fill="currentColor"/>
</svg>
